<?xml version="1.0" encoding="UTF-8" standalone="no"?>
<!-- Created with Inkscape (http://www.inkscape.org/) -->
<svg xmlns:svg="http://www.w3.org/2000/svg" xmlns="http://www.w3.org/2000/svg" version="1.0" width="296.0838" height="215.04504" id="svg2">
  <defs id="defs4"/>
  <g transform="translate(-163.8139,-423.10026)" id="layer1">
    <path d="M 359.29633,423.125 C 343.72216,422.7023 331.8908,427.9486 320.81323,437.84335 C 313.13387,431.63193 299.62293,432.38385 289.35146,430.90625 C 246.88848,426.85899 201.60872,443.38831 179.93576,480.13046 C 170.67796,494.47388 161.85834,511.36826 164.194,529.4375 C 165.7731,537.47009 176.33283,538.51411 181.63421,534.125 C 183.23413,533.80954 185.05327,529.00037 185.46369,532.5 C 189.62579,544.61471 198.46108,554.72537 204.81581,565.75 C 208.05613,585.38864 196.34996,604.42529 202.68837,623.90625 C 209.99504,637.14121 227.19427,639.00538 240.46889,637.78125 C 251.06727,637.52451 264.74002,639.31235 271.79319,630.09375 C 277.11966,619.64424 267.00469,609.23433 264.3018,599.1875 C 262.59183,593.91039 261.08877,585.9325 265.82295,582.4375 C 270.79479,583.17848 274.64492,587.7825 279.94894,587.75 C 289.84178,589.76478 299.87229,586.38127 309.23388,585.84375 C 316.54638,597.16296 309.84826,609.97389 309.43468,621.84375 C 309.36411,629.26862 315.53072,635.36105 322.77597,636.34375 C 335.07994,639.42006 347.85991,637.82011 360.11505,636.90625 C 369.11167,634.94546 375.64322,624.94019 371.40121,615.84375 C 367.61921,604.5811 362.27711,592.42813 366.69402,581.03125 C 369.04417,573.28 376.26423,568.84733 383.47329,566.4375 C 385.1927,565.50469 391.31109,561.0513 390.82037,562.74594 C 382.02085,572.59866 370.19949,584.33138 373.99963,599.40625 C 376.5043,610.14545 382.35055,621.57947 392.40146,627.09375 C 406.2989,633.13442 424.64641,620.60095 420.71617,605.3125 C 419.45363,600.77755 414.93779,597.99748 411.56951,595.59375 C 413.07566,589.62538 420.25664,587.14761 424.32123,583.0625 C 438.49799,572.76387 451.28074,559.51527 455.78603,541.96875 C 466.08609,508.61037 456.68078,468.43573 431.53724,442.31464 C 415.98078,428.67819 394.60371,426.94923 375.42699,423.90625 C 370.05813,423.3255 364.66497,423.0058 359.29633,423.125 z" id="path3175" style="fill:#000000;fill-opacity:1;fill-rule:evenodd;stroke:none;stroke-width:1px;stroke-linecap:butt;stroke-linejoin:miter;stroke-opacity:1"/>
    <path d="M 429.2233,568.2601 C 437.99447,560.70584 453.27398,544.33828 451.66795,510.34412 C 450.06191,476.34996 430.94824,444.87388 414.37249,440.46723 C 397.79674,436.06058 330.59655,412.76828 320.35568,462.50048 C 310.11482,512.23269 351.807,528.60025 362.41964,526.71168 C 373.03228,524.82312 383.74405,498.38321 383.74405,498.38321 C 383.74405,498.38321 380.07598,527.3412 367.00474,530.48881 C 353.9335,533.63642 320.96044,528.60025 311.68119,492.088 C 302.40193,455.57574 321.44123,445.5034 308.7021,442.3558 C 291.73407,438.16331 246.53312,432.28345 211.24027,458.09383 C 175.94741,483.90422 165.07703,533.63642 174.28192,528.60025 C 183.48681,523.56408 187.12018,507.19652 189.57384,519.15743 C 192.02748,531.11834 201.73303,550.00398 210.27371,557.55824 C 218.81439,565.1125 206.5065,611.06757 208.78171,619.25135 C 211.05691,627.43513 224.39582,629.95322 234.46817,629.95322 C 244.54051,629.95322 267.23304,630.58274 265.64684,623.658 C 264.06064,616.73327 255.91155,604.14284 254.65746,590.92288 C 253.40337,577.70293 262.638,573.29628 266.44487,573.9258 C 270.25175,574.55532 272.38322,580.00169 288.14602,580.22102 C 303.258,580.4313 303.04636,575.81436 309.37131,576.44388 C 315.69627,577.0734 319.91952,586.51622 320.45487,597.84761 C 320.99021,609.179 317.02967,618.62182 317.32708,624.91703 C 317.6245,631.21225 363.00954,632.4713 364.54121,624.91704 C 366.07288,617.36278 358.04276,607.29044 357.59664,597.84761 C 357.15052,588.40479 357.51732,569.51914 369.24029,564.48297 C 380.96327,559.4468 393.01836,548.11541 400.92951,555.66967 C 408.84067,563.22393 381.25574,578.96197 381.28052,592.81144 C 381.30531,606.66092 393.95027,621.13991 397.09788,621.13991 C 400.24549,621.13991 413.28699,617.36279 413.55961,609.80853 C 413.83225,602.25427 403.24934,604.77236 402.83296,595.95905 C 402.41658,587.14575 420.08827,576.12773 429.2233,568.2601 z" id="path2383" style="fill:#b0b0c7;fill-opacity:1;fill-rule:evenodd;stroke:none;stroke-width:1px;stroke-linecap:butt;stroke-linejoin:miter;stroke-opacity:1"/>
    <path d="M 419.26137,492.71753 A 6.2952156,6.2952156 0 1 1 406.67094,492.71753 A 6.2952156,6.2952156 0 1 1 419.26137,492.71753 z" transform="translate(8,11)" id="path3195" style="opacity:1;fill:#000000;fill-opacity:1;fill-rule:nonzero;stroke:none;stroke-width:2;stroke-linecap:round;stroke-linejoin:round;stroke-miterlimit:4;stroke-dasharray:none;stroke-opacity:1"/>
    <path d="M 436,553.36218 C 440.5,549.86218 429,542.36218 424.5,535.36218 C 420,528.36218 411,539.86218 413.5,546.86218 C 416,553.86218 430.5,555.86218 436,553.36218 z" id="path3217" style="fill:#ffffff;fill-opacity:1;fill-rule:evenodd;stroke:#000000;stroke-width:6;stroke-linecap:butt;stroke-linejoin:miter;stroke-miterlimit:4;stroke-dasharray:none;stroke-opacity:1"/>
    <path d="M 254.85137,633.60054 C 262.57943,632.53988 272.04186,630.77211 271.80801,625.82236 C 271.57417,620.87262 265.3995,609.91246 265.3995,609.91246 C 265.3995,609.91246 260.36623,608.14469 256.34074,612.74089 C 252.31524,617.33708 251.92272,631.47922 254.85137,633.60054 z" id="path3219" style="fill:#ffffff;fill-opacity:1;fill-rule:evenodd;stroke:#000000;stroke-width:6;stroke-linecap:butt;stroke-linejoin:miter;stroke-miterlimit:4;stroke-dasharray:none;stroke-opacity:1"/>
    <path d="M 354.55343,634.10852 C 362.28149,633.04786 371.74392,631.28009 371.51007,626.33034 C 371.27623,621.3806 365.10156,610.42044 365.10156,610.42044 C 365.10156,610.42044 360.06829,608.65267 356.0428,613.24887 C 352.0173,617.84506 351.62478,631.9872 354.55343,634.10852 z" id="path3221" style="fill:#ffffff;fill-opacity:1;fill-rule:evenodd;stroke:#000000;stroke-width:6;stroke-linecap:butt;stroke-linejoin:miter;stroke-miterlimit:4;stroke-dasharray:none;stroke-opacity:1"/>
  </g>
</svg>