<?xml version="1.0" encoding="UTF-8" standalone="no"?>
<!-- Created with Inkscape (http://www.inkscape.org/) -->
<svg
   xmlns:dc="http://purl.org/dc/elements/1.1/"
   xmlns:cc="http://web.resource.org/cc/"
   xmlns:rdf="http://www.w3.org/1999/02/22-rdf-syntax-ns#"
   xmlns:svg="http://www.w3.org/2000/svg"
   xmlns="http://www.w3.org/2000/svg"
   xmlns:sodipodi="http://sodipodi.sourceforge.net/DTD/sodipodi-0.dtd"
   xmlns:inkscape="http://www.inkscape.org/namespaces/inkscape"
   width="973.66156"
   height="820.79907"
   id="svg2"
   sodipodi:version="0.32"
   inkscape:version="0.44.1"
   version="1.0"
   sodipodi:docbase="/home/jan/work/projects/gnuviech/gnuviechweb/trunk/data/hetzgnu"
   sodipodi:docname="hetzgnu.svg"
   inkscape:export-filename="/home/jan/work/projects/gnuviech/gnuviechweb/trunk/data/hetzgnu/hetzgnu_for_logo.png"
   inkscape:export-xdpi="6.5789547"
   inkscape:export-ydpi="6.5789547">
  <defs
     id="defs4" />
  <sodipodi:namedview
     id="base"
     pagecolor="#ffffff"
     bordercolor="#666666"
     borderopacity="1.0"
     inkscape:pageopacity="0.0"
     inkscape:pageshadow="2"
     inkscape:zoom="0.35"
     inkscape:cx="350"
     inkscape:cy="517.14286"
     inkscape:document-units="px"
     inkscape:current-layer="layer1"
     width="973.66px"
     height="1052.36px"
     inkscape:window-width="994"
     inkscape:window-height="611"
     inkscape:window-x="282"
     inkscape:window-y="219" />
  <metadata
     id="metadata7">
    <rdf:RDF>
      <cc:Work
         rdf:about="">
        <dc:format>image/svg+xml</dc:format>
        <dc:type
           rdf:resource="http://purl.org/dc/dcmitype/StillImage" />
        <dc:title>HetzGNU</dc:title>
        <dc:date>2007-02-04</dc:date>
        <dc:creator>
          <cc:Agent>
            <dc:title>Dorothea Dittberner</dc:title>
          </cc:Agent>
        </dc:creator>
        <dc:rights>
          <cc:Agent>
            <dc:title>Copyright (c) 2007, Dorothea Dittberner</dc:title>
          </cc:Agent>
        </dc:rights>
        <dc:description>This is a running GNU (in german language &quot;hetzen&quot;, means something like beeing in a hurry or rush). Dorothea Dittberner has originally drawn this GNU for a hosting offer of her husband Jan.</dc:description>
        <dc:publisher>
          <cc:Agent>
            <dc:title>Jan Dittberner</dc:title>
          </cc:Agent>
        </dc:publisher>
        <dc:subject>
          <rdf:Bag>
            <rdf:li>GNU</rdf:li>
          </rdf:Bag>
        </dc:subject>
        <dc:contributor>
          <cc:Agent>
            <dc:title>Jan Dittberner scanned this image using the GIMP and XSane and vectorized it using Inkscape.p</dc:title>
          </cc:Agent>
        </dc:contributor>
        <cc:license
           rdf:resource="http://artlibre.org/licence.php/lalgb.html" />
      </cc:Work>
      <cc:License
         rdf:about="http://artlibre.org/licence.php/lalgb.html">
        <cc:permits
           rdf:resource="http://web.resource.org/cc/Reproduction" />
        <cc:permits
           rdf:resource="http://web.resource.org/cc/Distribution" />
        <cc:permits
           rdf:resource="http://web.resource.org/cc/DerivativeWorks" />
        <cc:requires
           rdf:resource="http://web.resource.org/cc/ShareAlike" />
        <cc:requires
           rdf:resource="http://web.resource.org/cc/Notice" />
        <cc:requires
           rdf:resource="http://web.resource.org/cc/Attribution" />
      </cc:License>
    </rdf:RDF>
  </metadata>
  <g
     inkscape:label="Ebene 1"
     inkscape:groupmode="layer"
     id="layer1"
     transform="translate(129.5188,-42.013)">
    <path
       style="fill:black;fill-opacity:1;stroke:#202830;stroke-opacity:1;stroke-width:0.1;stroke-miterlimit:4;stroke-dasharray:none"
       d="M 616.01195,860.10973 C 613.21682,858.71683 608.4896,855.27883 605.50702,852.46973 L 600.08415,847.36223 L 601.18979,838.86223 C 601.79789,834.18723 603.1896,825.49773 604.28249,819.55223 L 606.26955,808.74223 L 604.18038,792.05223 C 602.01888,774.78435 601.007,770.24993 596.1044,755.86221 C 594.5114,751.18721 592.90043,745.56221 592.52447,743.36221 C 591.74305,738.78958 588.63271,731.07891 586.67542,728.86221 C 585.94697,728.03721 583.27122,723.33387 580.72931,718.41035 C 578.18739,713.48683 575.7673,709.21183 575.35133,708.91035 C 573.80914,707.79265 564.29972,695.19369 561.29389,690.28574 C 557.395,683.91961 555.78838,673.86349 556.6729,661.36221 C 557.2598,653.06735 557.0877,651.77459 554.47627,644.86221 C 548.54297,629.15694 535.95384,609.75312 522.68524,595.86221 C 518.21968,591.18721 511.2011,583.84828 507.08839,579.55347 L 499.61074,571.74474 L 487.12679,571.93505 C 480.26062,572.03972 473.51784,572.13945 472.14284,572.15666 C 464.37181,572.25392 433.29149,570.70518 426.99574,569.90695 C 416.09507,568.52488 400.41739,564.95606 395.73875,562.79171 C 393.486,561.74958 387.36784,559.27914 382.14284,557.30185 C 371.31324,553.20362 363.49534,549.11609 351.36738,541.21114 C 343.09845,535.82149 340.37524,534.17848 331.14284,529.00895 C 328.66784,527.62311 325.29284,525.49483 323.64284,524.27944 C 320.38191,521.87744 305.27181,512.86221 304.50683,512.86221 C 303.39926,512.86221 289.97478,501.44671 282.14284,493.84502 C 273.04287,485.01256 257.80188,473.05902 249.64284,468.35518 C 246.89284,466.76976 243.29284,464.51931 241.64284,463.35419 C 239.99284,462.18907 237.43291,460.72394 235.9541,460.09835 C 233.39234,459.01463 233.20775,459.13568 232.04522,462.66156 C 230.71703,466.68987 227.68681,472.48385 225.66434,474.86221 C 222.44463,478.64849 217.15737,501.54832 214.12001,524.86221 C 213.51095,529.53721 212.42522,535.16221 211.70728,537.36221 C 208.83823,546.15392 207.96559,549.54481 207.74238,552.76886 C 207.56238,555.36884 206.49593,557.00902 203.07595,559.94573 C 198.16539,564.16238 196.89856,564.8718 189.64284,567.46824 C 183.17126,569.78407 171.44182,569.9385 168.07818,567.75216 C 164.18613,565.22237 146.37432,559.97117 136.14284,558.33714 C 131.22643,557.55195 121.52199,553.01477 116.39284,549.10328 C 113.85561,547.16839 113.14284,545.88327 113.14284,543.24352 C 113.14284,541.24724 113.65486,539.82987 114.39284,539.78326 C 115.39284,539.7201 115.39284,539.60344 114.39284,539.19993 C 112.9372,538.61256 112.76064,534.99461 114.02573,531.67731 C 115.74299,527.17437 124.65272,519.43461 132.72084,515.43712 C 144.01957,509.83898 143.96591,509.86221 145.59837,509.86221 C 146.41384,509.86221 150.52739,508.73721 154.73959,507.36221 C 158.95179,505.98721 163.83804,504.86221 165.59792,504.86221 L 168.79771,504.86221 L 170.06272,493.78329 C 170.75847,487.68988 171.70471,481.38988 172.16547,479.78329 C 172.62624,478.1767 172.91917,476.86221 172.81643,476.86221 C 172.71369,476.86221 171.05761,477.31393 169.13624,477.86604 C 167.21487,478.41815 159.7329,479.55565 152.50964,480.39383 C 141.10094,481.71768 138.80305,481.73175 135.00964,480.50094 C 132.6079,479.72167 128.99881,478.84451 126.98944,478.55169 C 124.98007,478.25888 118.45507,475.76417 112.48944,473.0079 C 102.04359,468.18165 95.22569,465.5564 79.14284,460.16771 C 69.56075,456.95715 67.54872,455.89987 56.64284,448.3443 C 46.15467,441.07812 37.20862,436.35384 36.17167,437.53377 C 35.77123,437.98941 34.70587,440.27149 33.80418,442.60506 C 31.88476,447.57254 20.50348,468.87156 17.03513,473.98678 C 8.46219,486.63042 5.0757,492.00958 2.63372,496.86221 C 1.11146,499.88721 -1.87173,504.92502 -3.99559,508.05734 C -6.11946,511.18966 -7.85716,514.01431 -7.85716,514.33433 C -7.85716,514.65435 -10.33216,519.02166 -13.35716,524.03946 C -16.38216,529.05726 -18.85716,533.39718 -18.85716,533.68373 C -18.85716,533.97028 -19.48597,534.91516 -20.25451,535.78347 C -21.83935,537.57403 -25.51144,543.7745 -29.77678,551.86221 C -33.03641,558.04295 -36.28026,561.86221 -38.27016,561.86221 C -39.00446,561.86221 -41.57443,562.94276 -43.98121,564.26343 C -46.38798,565.5841 -49.93216,566.9883 -51.85716,567.38387 C -53.78216,567.77944 -56.62223,568.7497 -58.16843,569.54001 C -59.71463,570.33032 -65.11463,571.41575 -70.16843,571.95209 C -82.15029,573.22365 -90.94258,575.37845 -98.35716,578.86054 C -110.26315,584.45191 -119.16185,586.04636 -125.71396,583.76228 C -129.7798,582.34492 -130.16551,580.49915 -128.82757,568.86221 C -128.22684,563.63721 -127.59896,557.7034 -127.43229,555.67597 C -127.26562,553.64854 -126.22818,550.27354 -125.12686,548.17597 C -124.02553,546.0784 -120.53679,539.41221 -117.37409,533.36221 C -114.2114,527.31221 -111.06305,521.46221 -110.37776,520.36221 C -108.99459,518.14199 -105.12512,516.93297 -90.35716,514.10674 C -80.71081,512.26066 -72.20239,512.3153 -63.85716,514.2769 C -61.70451,514.7829 -60.82869,514.11985 -57.55358,509.50478 C -55.46161,506.5569 -52.58351,501.94388 -51.15778,499.25361 C -49.73206,496.56334 -46.83015,491.79789 -44.70909,488.66373 C -42.58802,485.52956 -38.22529,477.42956 -35.01413,470.66373 C -26.06822,451.8149 -17.10079,433.2845 -12.24533,423.61402 C -6.70158,412.57268 2.46375,389.38397 4.65231,380.86221 C 5.57044,377.28721 6.72979,373.86806 7.22863,373.2641 C 7.72747,372.66014 9.07619,368.38514 10.22578,363.7641 C 11.37537,359.14306 12.80058,354.77743 13.39292,354.06271 C 14.84857,352.3063 22.55466,348.86221 25.02896,348.86221 C 26.12667,348.86221 27.32594,349.34945 27.69399,349.94497 C 28.06204,350.54049 30.2261,351.90982 32.50301,352.98792 C 34.77991,354.06602 38.78203,356.05021 41.39659,357.39723 C 49.29614,361.46705 69.61087,364.67319 79.16904,363.35861 C 83.75234,362.72824 84.24336,362.37347 86.55402,358.02278 C 91.47745,348.75257 93.08117,345.10164 99.14354,329.36221 C 104.87666,314.4776 107.47145,307.88857 113.1236,293.86221 C 114.34258,290.83721 116.57469,284.98721 118.08385,280.86221 C 119.59301,276.73721 122.54943,269.37265 124.65368,264.49652 C 128.66142,255.20945 131.92399,251.73978 139.35211,248.86506 C 144.81935,246.74922 170.10198,233.96208 173.83901,231.4227 C 179.06317,227.87279 182.44699,222.26999 182.91712,216.39149 C 183.40695,210.26657 181.45719,207.03646 169.33756,193.89469 C 161.80173,185.72332 150.90759,172.03023 146.85774,165.63934 C 144.8393,162.45412 142.17886,151.86278 142.15762,146.92793 C 142.13164,140.89179 145.66763,135.28087 151.65719,131.854 C 160.04787,127.05334 167.06147,125.504 180.14284,125.5614 C 192.75084,125.61672 216.72082,128.84384 226.47939,131.79976 C 235.75231,134.60859 258.12661,137.36262 271.64284,137.35891 C 288.69091,137.35421 291.97105,135.89918 300.46124,124.57535 C 304.45642,119.24676 308.32655,115.86221 310.42444,115.86221 C 311.41555,115.86221 313.22015,114.91284 314.43465,113.75249 C 315.64916,112.59214 319.11784,109.8111 322.14284,107.5724 C 325.16784,105.33369 327.86784,103.23394 328.14284,102.90628 C 328.41784,102.57861 330.65177,100.74715 333.10713,98.836359 C 335.56248,96.925569 338.49604,94.462199 339.62614,93.362199 C 345.35623,87.784739 352.10018,75.667189 352.14838,70.862199 C 352.1869,67.023509 353.57527,65.502939 356.39545,66.210749 C 358.4636,66.729829 359.06551,67.785569 360.1163,72.737129 C 361.01409,76.967719 361.07933,79.597579 360.34617,82.003229 C 359.78313,83.850659 359.05716,86.565079 358.73291,88.035269 C 358.40865,89.505459 356.53974,92.809179 354.57978,95.376869 L 351.0162,100.04541 L 355.55963,96.919449 C 362.66359,92.031799 371.68195,83.265299 374.93558,78.084609 C 378.39034,72.583679 379.62681,65.686229 379.63631,51.862199 C 379.64253,42.819419 379.74941,42.347049 381.85722,42.047319 C 384.11057,41.726889 385.2224,43.497929 389.27447,53.862199 C 392.2457,61.461969 389.3329,84.164489 384.14218,93.863439 C 383.09423,95.821559 383.1672,95.919529 384.95928,94.960439 C 387.9168,93.377619 392.07019,88.056109 392.70588,85.035129 C 393.01523,83.565019 393.47367,81.349699 393.72464,80.112199 C 394.04922,78.511719 394.89163,77.862199 396.64284,77.862199 C 400.00098,77.862199 400.46879,80.381179 399.27596,92.040479 C 398.04597,104.06303 395.73131,108.84272 386.01197,119.43016 C 382.00705,123.79278 380.12863,126.08314 381.8377,124.51984 C 388.52322,118.40453 391.49099,124.1465 385.92566,132.42912 C 384.10259,135.14232 381.99581,138.56943 381.24394,140.04492 C 376.38911,149.57218 349.6371,166.18818 333.29063,169.82929 C 319.68916,172.85897 291.34528,172.6635 283.98398,169.48926 C 279.71786,167.64967 273.07806,166.07276 264.64284,164.89585 C 261.34284,164.43542 253.24284,162.37945 246.64284,160.32704 C 235.98855,157.01385 233.45656,156.59453 224.06449,156.58787 C 218.2464,156.58374 211.15829,157.13882 208.31312,157.82136 C 203.18084,159.05258 197.14284,163.42862 197.14284,165.91703 C 197.14284,167.87796 204.85826,174.50819 209.89543,176.87594 C 216.4972,179.97914 221.71197,184.47165 227.29105,191.86221 C 231.78118,197.81026 232.70802,199.88177 234.56161,208.11221 C 235.07605,210.39644 235.72818,210.87371 238.41189,210.93011 C 247.00437,211.11067 260.14284,212.935 260.14284,213.94752 C 260.14284,214.43828 261.15534,214.79502 262.39284,214.74028 C 263.63034,214.68554 266.92842,215.11435 269.7219,215.69318 C 272.51538,216.27201 277.46538,216.82579 280.7219,216.92379 C 297.17058,217.4188 316.52082,221.19553 334.85866,227.49006 C 341.64396,229.81914 342.56875,229.90013 350.35866,228.84749 C 361.67593,227.3182 366.84907,226.14735 372.14436,223.91668 C 378.45107,221.25996 393.93518,217.56855 395.78882,218.27985 C 397.10355,218.78436 397.23145,218.14193 396.65325,213.93789 C 395.65939,206.71171 399.06906,184.17844 402.66041,174.23861 C 405.73458,165.73022 414.50596,150.43504 420.08048,143.86221 C 422.64603,140.83721 426.08337,136.49872 427.71901,134.22112 C 432.5428,127.50407 438.91801,122.70638 442.54932,123.06052 C 447.85305,123.57775 447.27081,127.5611 439.9405,140.9084 C 436.47679,147.21527 430.52456,159.10545 426.71333,167.33103 C 420.00966,181.79919 419.78151,182.5486 419.71333,190.32442 C 419.59959,203.29373 422.26181,208.33139 432.35531,214.24658 C 437.59752,217.31872 444.72929,217.70756 452.64284,215.3527 C 459.60203,213.28183 461.90895,212.04343 467.64284,207.30039 C 479.11973,197.80678 498.45444,188.86221 507.49905,188.86221 C 512.48629,188.86221 520.57608,191.51064 529.39284,196.02979 L 537.14284,200.00216 L 537.14284,197.57086 C 537.14284,195.55837 536.7382,195.21691 534.79385,195.58859 C 532.92429,195.94598 531.81264,195.15232 529.34721,191.69992 C 523.74613,183.8566 521.68869,181.70802 517.92064,179.76717 C 515.87344,178.71269 512.61094,176.45608 510.67064,174.75248 L 507.14284,171.65503 L 507.14284,179.25862 L 507.14284,186.86221 L 498.26528,186.86221 C 491.59408,186.86221 489.07834,187.23501 488.14284,188.36221 C 487.45815,189.18721 486.32949,189.86221 485.6347,189.86221 C 484.93992,189.86221 483.08252,190.53444 481.50715,191.35605 C 478.2101,193.07558 470.29463,193.30987 465.01776,191.84412 C 463.02396,191.29031 459.42396,189.27218 457.01776,187.3594 C 454.61155,185.44662 452.32875,183.87725 451.94486,183.87192 C 449.93648,183.84399 454.18718,191.03422 458.9116,195.65644 C 462.52127,199.18803 464.12239,201.47311 463.72071,202.51989 C 463.2976,203.62249 462.45309,203.88319 460.88069,203.3966 C 459.64987,203.01571 455.04284,202.46358 450.64284,202.16963 C 445.21243,201.80685 441.59895,201.00306 439.39284,199.66714 C 435.4599,197.28554 435.30971,198.06112 438.14284,206.12189 C 440.47395,212.75431 440.68294,215.86221 438.79783,215.86221 C 434.48234,215.86221 427.88566,198.29905 430.05653,192.58921 C 431.48968,188.81974 434.72832,189.04556 441.14284,193.36221 C 445.80401,196.49895 450.8569,198.07304 449.97044,196.11221 C 449.78396,195.69971 448.33214,192.88774 446.74418,189.86339 C 444.35579,185.31458 443.83848,183.06862 443.74991,176.86339 C 443.64322,169.38872 443.65258,169.36109 446.40023,169.04507 C 448.31676,168.82465 449.39401,169.28207 449.93282,170.54507 C 453.2267,178.26622 463.9023,186.86221 470.19753,186.86221 L 473.7273,186.86221 L 466.94957,179.61221 C 460.12847,172.31581 459.13526,170.26979 461.34284,168.06221 C 463.37879,166.02626 465.97397,166.71485 470.01116,170.36221 C 472.1419,172.28721 474.21544,173.86221 474.61902,173.86221 C 475.02259,173.86221 477.35311,175.21221 479.79795,176.86221 C 485.78972,180.90601 487.4034,180.65885 482.76269,176.40812 C 480.09785,173.96723 479.0872,172.28057 479.31727,170.65812 C 479.82705,167.06318 483.75636,167.09617 487.50792,170.7269 C 490.71262,173.82838 496.76199,176.86221 499.74156,176.86221 C 501.12082,176.86221 501.28526,176.22246 500.70544,173.11221 C 499.07315,164.35634 498.39187,154.28536 499.31457,152.55153 C 500.43726,150.44188 504.04069,150.63036 505.25412,152.86221 C 505.70267,153.68721 507.18225,156.89991 508.54208,160.00155 C 511.37209,166.45652 515.44363,170.73972 522.75263,174.95084 C 529.07684,178.59456 530.35407,179.99266 534.66228,187.98753 C 536.5516,191.4936 538.10764,193.56577 538.12013,192.59234 C 538.15639,189.76636 542.88075,183.0448 545.8874,181.54149 C 554.53255,177.21896 576.44065,176.81623 590.07521,180.7292 C 600.07882,183.60013 617.94723,183.76657 623.15844,181.03737 C 629.15165,177.89863 633.76663,164.98921 630.90707,159.36221 C 630.34807,158.26221 627.78636,154.88721 625.21437,151.86221 C 622.64239,148.83721 619.21698,144.56221 617.60235,142.36221 C 612.14641,134.92828 607.67688,130.73054 598.14284,124.08604 C 592.91784,120.44461 588.19284,116.9664 587.64284,116.35667 C 583.49793,111.76167 567.72498,104.82472 562.27384,105.19938 C 556.37859,105.60456 557.61461,97.816509 563.85969,95.207149 C 568.93395,93.086989 585.49368,92.277539 593.11579,93.777099 C 599.5505,95.043049 607.1009,98.309099 618.64284,104.81923 C 622.49284,106.99079 626.31784,109.0935 627.14284,109.49192 C 627.96784,109.89034 628.86784,110.47541 629.14284,110.79207 C 629.41784,111.10874 631.55805,112.66714 633.89886,114.25519 C 642.25782,119.92606 651.32553,130.71073 656.26994,140.86221 C 665.83463,160.49966 667.43086,171.78484 662.6373,185.87851 C 659.16304,196.09324 654.87142,200.19079 651.34284,196.66221 C 649.8425,195.16187 649.77688,191.20642 651.23735,190.3038 C 651.83933,189.93176 653.63933,186.71325 655.23735,183.15157 C 659.88167,172.80026 659.28648,168.49014 650.09121,145.8849 C 647.01718,138.32786 645.66583,136.42811 637.64284,128.3849 C 629.79094,120.5132 626.53242,118.0025 616.64284,112.20429 C 610.91395,108.84547 595.13214,101.92507 591.64284,101.24166 C 584.58993,99.860299 575.14284,100.12336 575.14284,101.70112 C 575.14284,102.59292 575.84817,102.91102 577.09983,102.5837 C 578.96881,102.09495 589.49943,108.05096 596.69237,113.66504 C 598.31513,114.9316 603.05836,118.59667 607.23289,121.80964 C 611.81077,125.33304 617.6693,131.25976 621.99517,136.74372 C 625.9399,141.7445 630.71946,147.2484 632.61643,148.9746 C 642.19657,157.69233 640.54299,179.45435 629.74728,186.73414 C 622.86616,191.37424 619.95125,192.13938 611.93137,191.4107 C 597.49868,190.09934 588.60294,188.67271 583.17148,186.79839 C 580.13073,185.74907 576.06784,184.84585 574.14284,184.79124 C 568.4268,184.62907 552.85126,186.99924 549.97001,188.46968 C 546.02746,190.48176 542.77721,199.66627 543.49012,206.7805 C 543.78874,209.76056 543.59194,213.02306 543.05277,214.0305 C 541.74774,216.46899 538.43752,216.36601 537.64284,213.86221 C 537.29371,212.76221 536.39553,211.86221 535.64688,211.86221 C 534.89823,211.86221 533.67205,211.29971 532.92204,210.61221 C 532.17202,209.92471 530.853,208.91221 529.99088,208.36221 C 529.12875,207.81221 527.34775,206.59938 526.03311,205.66702 C 522.98519,203.50542 511.33528,201.35793 503.90784,201.58855 C 499.9061,201.71281 496.18276,202.68774 491.58807,204.81442 C 487.96645,206.4907 484.68723,207.86221 484.30091,207.86221 C 483.9146,207.86221 482.0335,209.09971 480.12068,210.61221 C 478.20787,212.12471 474.84284,214.19991 472.64284,215.22377 C 470.44284,216.24762 467.51784,217.73467 466.14284,218.52832 C 459.37622,222.434 456.29325,223.19595 445.43591,223.64602 C 433.58847,224.13713 431.41013,223.55103 425.17436,218.19447 C 415.88934,210.21858 414.14581,206.75356 413.43402,194.86221 C 412.86764,185.40009 414.48132,177.36499 418.85638,167.86221 C 420.24909,164.83721 423.37381,158.10668 425.80021,152.90548 C 429.8278,144.27198 429.98374,143.66262 427.5915,145.90548 C 420.79254,152.27992 409.38653,173.517 406.66863,184.86221 C 404.45475,194.10352 403.47093,220.28679 405.14537,225.40238 C 407.43961,232.41156 420.85437,247.86221 424.64572,247.86221 C 425.46914,247.86221 426.14284,248.25762 426.14284,248.74089 C 426.14284,249.22416 427.60534,250.19828 429.39284,250.90558 C 431.18034,251.61289 433.31784,252.73946 434.14284,253.40906 C 435.39522,254.42555 438.11907,252.41136 450.64284,241.20791 C 469.39412,224.4335 473.19962,222.3855 485.64284,222.37198 C 494.20101,222.36269 495.07041,222.57037 503.35243,226.60244 C 512.43826,231.02584 514.47585,233.14965 513.95449,237.65311 C 513.50554,241.53111 510.75564,241.54122 506.89027,237.67908 C 501.72559,232.5187 492.19149,227.86221 486.79038,227.86221 C 478.32181,227.86221 472.01658,231.17018 460.3509,241.73337 C 454.46147,247.06621 446.26784,254.09021 442.14284,257.34224 C 438.01784,260.59428 434.41784,263.50457 434.14284,263.80955 C 432.59502,265.52612 423.7633,268.86943 418.14284,269.86646 C 414.56784,270.50064 409.39284,271.64422 406.64284,272.40774 C 403.89284,273.17126 399.05686,274.09765 395.89622,274.46637 C 392.73558,274.83509 389.46222,275.63941 388.62207,276.25374 C 386.37258,277.89861 387.78442,283.4708 391.03761,285.78728 C 396.13742,289.41867 411.13926,293.6038 423.4852,294.83934 C 435.69777,296.06153 441.30929,295.73157 451.64284,293.18366 C 454.94284,292.36999 458.76784,291.44182 460.14284,291.12107 C 461.51784,290.80031 464.52944,289.48585 466.83528,288.20004 C 469.14113,286.91423 471.67912,285.86221 472.47528,285.86221 C 475.21478,285.86221 486.66192,276.66062 496.64284,266.43551 C 508.25587,254.53836 513.68116,251.32464 520.79825,252.12684 C 523.28343,252.40695 525.83002,253.14939 526.45733,253.7767 C 528.37342,255.69279 525.84293,258.31049 521.54126,258.86221 C 519.39713,259.13721 515.84284,260.33542 513.64284,261.52491 C 508.31212,264.40709 501.14284,270.66744 501.14284,272.44013 C 501.14284,273.22228 500.80534,273.86263 500.39284,273.86314 C 499.98034,273.86364 496.29563,276.95693 492.2046,280.73711 C 488.11357,284.51728 483.16357,288.45006 481.2046,289.47661 C 479.24563,290.50316 477.41784,291.61966 477.14284,291.95772 C 476.86784,292.29579 474.84284,293.15583 472.64284,293.86892 C 470.44284,294.58202 467.74284,295.74018 466.64284,296.44261 C 465.54284,297.14504 460.59284,298.73086 455.64284,299.96664 C 439.69637,303.94772 412.5694,302.68446 396.96997,297.23434 C 383.19997,292.42339 380.49017,289.46586 379.5527,278.22482 C 378.74951,268.59386 379.72527,267.18401 386.40241,268.32786 C 392.39359,269.35419 397.92233,269.04359 403.14284,267.3874 C 405.61784,266.60221 411.19044,265.2465 415.5264,264.3747 C 423.43194,262.7852 427.1449,261.41125 427.14046,260.07703 C 427.13916,259.68388 424.60394,258.03801 421.50664,256.41955 C 417.23083,254.18527 414.35305,251.54321 409.55205,245.44416 C 406.07433,241.02616 401.97205,234.86667 400.43588,231.7564 L 397.64284,226.10137 L 390.64284,226.59427 C 386.53389,226.88359 379.48278,228.48409 373.57023,230.4695 C 368.03029,232.32979 361.28029,234.10084 358.57023,234.40517 C 355.86017,234.7095 351.1582,235.65194 348.12142,236.49947 C 342.84177,237.97297 342.3382,237.94254 336.62142,235.80463 C 323.06251,230.73399 314.33818,228.06539 309.14284,227.39946 C 306.11784,227.01172 301.01324,226.03399 297.79928,225.22672 C 294.58532,224.41946 286.93532,223.57528 280.79928,223.35077 C 272.27034,223.03872 267.98702,222.36084 262.6122,220.47247 C 256.96203,218.48737 253.42772,217.97082 244.6122,217.84173 C 238.57905,217.75338 231.50534,218.00801 228.89284,218.40757 L 224.14284,219.13406 L 224.14284,215.99813 C 224.14284,213.87731 224.62839,212.86221 225.64284,212.86221 C 227.52544,212.86221 227.52477,211.51132 225.63903,205.16133 C 223.59601,198.28176 213.07341,186.86555 205.03536,182.80795 C 198.23157,179.37341 192.62755,174.70021 190.59176,170.76343 C 186.42915,162.71383 192.09741,154.72378 204.14284,151.66164 C 215.51246,148.77131 235.10545,149.09865 243.26401,152.31524 C 252.64991,156.01572 277.55372,160.72607 284.16794,160.05189 C 285.56685,159.9093 287.59665,160.63634 288.71905,161.68202 C 292.83333,165.51506 316.11363,166.64142 330.2779,163.69275 C 340.3897,161.58771 346.01742,158.97081 359.64284,150.03801 C 370.59841,142.85555 371.0333,142.50238 373.40458,138.86221 L 375.03312,136.36221 L 371.33798,136.15553 C 369.29396,136.04121 364.88561,137.04659 361.47228,138.40553 C 358.07848,139.7567 354.36598,140.86221 353.22228,140.86221 C 350.53026,140.86221 350.52084,138.1944 353.20985,137.34094 C 357.592,135.9501 372.92324,124.75506 378.7316,118.70467 C 385.53348,111.61937 391.59778,102.79412 392.56156,98.578229 C 393.18774,95.839139 393.11004,95.865899 387.74222,100.23806 C 381.31047,105.47679 379.31221,106.2573 375.77492,104.91242 C 372.49998,103.66729 372.50096,102.90226 375.78575,96.507429 C 380.47481,87.378739 380.90041,86.409429 381.55737,83.362199 C 382.13478,80.683999 381.47682,81.136949 375.4235,87.584909 C 371.69414,91.557399 365.17155,97.066059 360.92887,99.826369 C 350.45063,106.64357 334.75785,114.86221 332.21923,114.86221 C 329.04356,114.86221 329.7279,112.27558 333.86637,108.63645 C 339.28491,103.87172 347.08312,95.469149 346.56628,94.952309 C 346.32177,94.707799 345.16698,95.532539 344.00007,96.785069 C 342.83316,98.037599 337.55042,102.26811 332.26063,106.1862 C 322.96251,113.07322 306.79773,128.5063 300.65228,136.3638 C 295.53262,142.90974 291.37979,144.05782 272.25421,144.21471 C 261.70453,144.30125 254.18319,143.90804 251.64284,143.13716 C 249.44284,142.46957 243.22656,141.43167 237.82888,140.83073 C 232.4312,140.22979 225.2312,138.83483 221.82888,137.73083 C 212.68549,134.76394 192.85968,131.94795 179.7629,131.75591 C 168.47629,131.59042 168.10917,131.65615 160.72011,135.1652 C 149.70812,140.39477 147.15661,145.57698 150.65262,155.61265 C 153.02589,162.42537 162.67103,175.58621 173.03744,186.15685 C 185.25428,198.61437 189.81879,205.42043 190.70304,212.49772 C 192.11496,223.79837 186.60761,233.27693 174.98046,239.55743 C 170.94477,241.73735 166.74284,244.03889 165.64284,244.67197 C 164.54284,245.30505 158.97426,247.88077 153.26822,250.3958 C 147.56218,252.91083 142.24254,255.61965 141.4468,256.4154 C 140.65105,257.21114 139.38003,257.86221 138.6223,257.86221 C 135.99868,257.86221 128.38752,270.32783 126.71616,277.36221 C 126.32412,279.01221 124.94296,282.83721 123.64692,285.86221 C 122.35089,288.88721 120.18316,294.28721 118.82975,297.86221 C 117.47634,301.43721 113.40171,311.82984 109.77501,320.95695 C 106.14831,330.08406 102.45293,340.39364 101.56307,343.86714 C 100.6732,347.34063 98.64453,352.58654 97.05492,355.52472 L 94.16472,360.86686 L 97.26353,360.61453 C 99.36481,360.44344 100.7294,360.94506 101.50259,362.1728 C 102.44881,363.6753 102.18045,364.38555 99.92547,366.34677 C 96.6737,369.17492 90.17111,370.19296 75.14284,370.2267 C 55.25336,370.27135 44.75998,368.01275 32.95216,361.14553 C 29.82229,359.32526 25.92655,357.56895 24.29496,357.24263 C 20.70915,356.52547 18.95948,358.71547 16.54602,366.94163 C 15.67135,369.92295 14.35315,373.71221 13.61669,375.36221 C 11.95176,379.09246 9.14284,387.59724 9.14284,388.90806 C 9.14284,389.44483 8.29611,391.7916 7.26121,394.12311 C 6.22632,396.45461 4.79511,399.93721 4.08075,401.86221 C 3.36639,403.78721 -0.00243,411.21221 -3.40552,418.36221 C -6.80861,425.51221 -9.94002,432.48721 -10.36421,433.86221 C -10.78841,435.23721 -13.6767,441.31221 -16.78265,447.36221 C -19.88859,453.41221 -24.87182,463.76221 -27.85648,470.36221 C -30.84114,476.96221 -34.08729,483.55668 -35.07015,485.01658 C -36.053,486.47648 -36.85716,488.00901 -36.85716,488.42219 C -36.85716,488.83537 -37.90438,490.5659 -39.18431,492.26782 C -40.46424,493.96973 -43.20984,498.51221 -45.28563,502.36221 C -47.36143,506.21221 -50.333,511.71108 -51.88914,514.58193 C -53.44527,517.45278 -54.86218,521.05278 -55.03782,522.58193 C -55.29287,524.80251 -55.93173,525.42793 -58.21131,525.68868 C -60.00648,525.89402 -61.86163,525.29108 -63.21131,524.06365 C -68.91138,518.87981 -74.82546,518.11768 -87.93197,520.87797 C -100.42474,523.509 -101.79449,524.01712 -104.45182,527.00611 C -106.79767,529.64475 -113.85716,541.19811 -113.85716,542.39863 C -113.85716,542.82477 -114.9846,544.65158 -116.36259,546.45821 C -119.22174,550.20676 -121.85672,562.03019 -121.85699,571.11221 L -121.85716,576.86221 L -118.01371,576.86221 C -113.74035,576.86221 -105.59045,574.30186 -98.80906,570.82892 C -94.20574,568.47143 -86.11554,566.62285 -74.85716,565.35599 C -60.76131,563.76985 -40.04368,555.20052 -37.03468,549.71167 C -33.3083,542.91424 -28.15099,534.60464 -24.56902,529.62669 C -22.48555,526.73122 -15.94873,516.26221 -10.04277,506.36221 C -4.1368,496.46221 3.98258,483.43292 8.00029,477.40822 C 17.99928,462.4144 29.29408,438.33015 30.06347,430.36221 L 30.64284,424.36221 L 34.14284,424.11627 C 37.22299,423.89984 37.97406,424.35316 40.40397,427.89526 C 41.92259,430.10896 44.17259,432.36479 45.40397,432.9082 C 49.00479,434.49725 56.43419,439.07843 61.73135,442.97613 C 70.31467,449.29183 74.43991,451.42885 82.64284,453.80904 C 87.04284,455.08576 92.66784,457.13957 95.14284,458.37307 C 97.61784,459.60656 101.21784,460.95317 103.14284,461.36553 C 105.06784,461.77789 110.69284,464.04193 115.64284,466.39673 C 129.09559,472.79644 142.61637,475.17559 151.64284,472.73136 C 153.84284,472.13563 158.21533,471.50784 161.35948,471.33625 C 167.5644,470.99764 181.37522,467.31249 190.14284,463.65597 C 198.67814,460.09634 220.037,448.3842 226.14284,443.91535 C 229.16784,441.70136 233.21784,438.81353 235.14284,437.49794 C 237.06784,436.18235 240.44284,433.33077 242.64284,431.1611 C 244.84284,428.99143 248.66784,425.66837 251.14284,423.77654 C 257.02019,419.28401 264.14284,411.81224 264.14284,410.13933 C 264.14284,408.43468 268.55099,406.42112 270.57907,407.19937 C 274.37791,408.65712 271.8205,414.33417 263.88359,422.0623 C 259.14617,426.6751 237.81419,444.61229 233.26859,447.80521 L 229.89433,450.17535 L 235.7979,452.31298 C 246.69767,456.25969 272.66143,474.96794 291.7275,492.61317 C 302.06013,502.1758 310.57083,508.70341 317.64284,512.48994 C 320.39284,513.96236 326.33173,517.57348 330.84038,520.51464 C 335.34903,523.4558 339.25222,525.86221 339.51413,525.86221 C 340.44527,525.86221 357.67585,536.37398 359.58584,538.10725 C 362.1877,540.46838 372.71988,545.80654 383.14284,550.04695 C 412.01054,561.79128 428.48541,564.80274 465.21044,565.04819 C 478.17262,565.13483 489.34701,564.85406 490.04243,564.42426 C 490.99001,563.83863 490.69812,562.98124 488.87753,561.00252 C 483.16021,554.78859 476.2365,541.19318 471.60219,527.0806 C 466.71564,512.19989 458.17302,494.69894 453.67909,490.36221 C 450.58983,487.38102 445.05894,483.88894 442.52951,483.32262 C 436.05689,481.87346 436.14284,481.95458 436.14284,477.29482 C 436.14284,473.08273 436.28538,472.86221 439.00798,472.86221 C 440.58381,472.86221 442.94631,473.69858 444.25798,474.72081 C 445.56965,475.74305 448.21784,477.36698 450.14284,478.32956 C 456.79378,481.65528 462.01196,487.86388 467.40005,498.86221 C 472.83116,509.94834 473.27482,510.99158 477.6064,522.86221 C 484.19123,540.90779 491.36571,552.08614 506.16737,567.36221 C 530.55393,592.53038 536.63225,599.71451 547.41858,616.11811 C 561.93926,638.20082 563.38529,642.37411 563.61531,662.86221 C 563.74864,674.73756 564.16924,679.20244 565.41394,681.95528 C 566.78646,684.99083 573.40259,694.27538 581.64284,704.72962 C 583.5404,707.13701 589.19104,717.41357 594.63741,728.36221 C 596.00539,731.11221 597.39509,734.93721 597.72563,736.86221 C 598.05617,738.78721 600.25435,746.43721 602.61048,753.86221 C 607.84213,770.34903 608.62609,773.75137 611.13595,790.86223 C 612.98364,803.45873 613.01627,805.03143 611.6235,814.36223 C 607.68089,840.77533 607.57291,842.62003 609.79393,845.61683 C 615.85001,853.78813 623.84203,856.69613 636.51331,855.33913 C 642.08272,854.74273 643.91035,853.98803 649.43488,850.00333 C 652.97393,847.45073 657.92429,842.95123 660.43569,840.00453 C 664.1597,835.63503 664.84217,834.25173 664.13602,832.50453 C 663.6598,831.32623 662.98649,828.62333 662.63977,826.49803 C 661.93398,822.17173 655.38942,814.41203 649.24932,810.62143 C 644.31817,807.57713 634.39726,797.28783 632.19456,792.93343 C 630.53755,789.65763 625.05045,767.78439 623.11261,756.7299 C 622.66599,754.18213 621.12276,749.15352 619.68321,745.55522 C 617.44118,739.95103 615.06075,731.74478 611.06999,715.86221 C 610.5863,713.93721 610.17982,705.77442 610.1667,697.72268 C 610.14187,682.48849 608.34665,669.2182 605.45072,662.86221 C 603.84176,659.33085 598.71304,652.20994 596.44781,650.36221 C 592.99209,647.54341 585.35904,634.64941 582.24018,626.36221 C 580.99824,623.06221 578.91447,617.88721 577.60959,614.86221 C 576.3047,611.83721 574.3062,604.63721 573.16847,598.86221 C 572.03074,593.08721 570.39899,584.98721 569.54236,580.86221 C 565.76861,562.69014 566.28768,546.67509 570.96413,536.99597 C 574.26772,530.15832 577.04901,519.94738 578.01876,511.09627 C 578.9702,502.41235 580.16116,499.86221 583.26528,499.86221 C 584.74026,499.86221 585.14284,500.60409 585.14284,503.32216 C 585.14284,511.65498 581.82813,527.84247 578.17246,537.36221 C 574.18506,547.74584 572.43808,556.9181 573.5807,561.47065 L 574.24448,564.11535 L 576.74804,561.76338 C 580.3951,558.33715 586.72788,546.34468 588.76503,539.00665 C 589.73546,535.51109 591.12318,532.42325 591.84887,532.14477 C 593.74805,531.41599 596.14284,533.73819 596.14284,536.30858 C 596.14284,539.53477 589.44159,554.53146 585.25898,560.66549 C 583.2701,563.58229 581.19863,566.84479 580.65571,567.91549 C 580.06014,569.09003 578.64022,569.86221 577.07601,569.86221 L 574.48343,569.86221 L 575.38458,575.61221 C 576.64506,583.65504 580.13666,599.58739 581.68519,604.36221 C 583.93536,611.30048 591.75819,629.34823 594.72925,634.45565 C 597.15529,638.62614 599.72684,641.86634 605.67814,648.25144 C 608.78096,651.58044 612.98194,660.27701 614.66826,666.86221 C 616.17062,672.72897 616.61497,678.17309 616.70876,691.86221 C 616.83434,710.19052 618.23883,719.25 623.1425,733.36221 C 627.75381,746.63303 628.95191,750.53473 629.59102,754.36221 C 629.95837,756.56221 631.86266,764.9729 633.82276,773.05263 C 637.27869,787.29829 637.54185,787.92516 642.51471,793.75783 C 645.33518,797.06593 651.46939,802.64603 656.14629,806.15793 C 666.74485,814.11643 670.14284,818.73433 670.14284,825.17953 C 670.14284,827.76993 670.68697,830.76063 671.35201,831.82553 C 672.32975,833.39113 672.23203,834.45193 670.84148,837.36793 C 666.45387,846.56893 658.5108,854.14353 647.36153,859.75893 C 641.4733,862.72463 640.45486,862.91383 631.08712,862.78243 C 622.57037,862.66293 620.34321,862.26803 616.01195,860.10973 z M 186.90954,561.39071 C 189.80623,560.04213 192.4298,558.27797 192.73972,557.47035 C 193.04963,556.66274 194.55519,555.56551 196.0854,555.03208 C 201.28653,553.21896 202.71669,548.52135 210.44601,507.86221 C 211.23017,503.73721 212.87799,496.76221 214.10783,492.36221 C 215.33767,487.96221 216.7365,482.44202 217.21636,480.09512 C 217.69621,477.74822 219.46407,471.89822 221.14494,467.09512 C 222.8258,462.29202 224.46401,457.58018 224.7854,456.62436 C 226.17729,452.48489 221.69782,453.73617 204.81645,462.20244 C 195.37097,466.9395 186.22432,471.09829 184.49057,471.4442 C 181.66579,472.00778 181.26945,472.53227 180.67554,476.49269 C 180.31103,478.92345 178.86709,484.61349 177.46678,489.13723 C 175.91625,494.14629 174.61486,501.46765 174.13837,507.86221 C 173.25245,519.75145 172.30433,524.31486 169.30786,531.11221 C 167.79794,534.53739 166.64618,535.86221 165.17838,535.86221 C 162.90261,535.86221 162.7105,534.9009 164.09344,530.43321 C 165.88589,524.64258 168.14284,515.23075 168.14284,513.54661 C 168.14284,508.5617 145.53539,515.31183 137.40919,522.72306 C 135.21457,524.72459 131.36,528.11352 128.84349,530.25401 C 126.32698,532.39449 123.73084,535.44266 123.07429,537.0277 C 122.41774,538.61275 121.15208,540.32491 120.2617,540.8325 C 117.70399,542.29062 119.9026,544.72434 127.1233,548.42783 C 131.10426,550.46966 135.81235,551.97435 139.58257,552.40977 C 142.91572,552.79471 146.76784,553.55359 148.14284,554.09616 C 149.51784,554.63874 153.11784,555.67754 156.14284,556.40461 C 159.16784,557.13167 164.56784,559.07373 168.14284,560.72029 C 176.14619,564.40643 180.12649,564.54863 186.90954,561.39071 z M 787.7338,785.38147 C 785.5838,784.61534 782.9729,783.13675 781.9319,782.09571 C 779.5124,779.67623 778.1483,771.0848 777.5284,754.36221 C 777.0887,742.49873 776.7722,740.75024 773.9082,734.36221 C 772.1821,730.51221 770.2293,726.68721 769.5687,725.86221 C 768.908,725.03721 766.977,721.66221 765.2775,718.36221 C 763.5781,715.06221 760.8385,710.56221 759.1896,708.36221 C 757.5407,706.16221 754.9862,702.57351 753.5127,700.38732 C 752.0393,698.20113 749.2159,694.30634 747.2383,691.73222 C 745.2608,689.15811 742.3766,684.87181 740.8289,682.20711 C 739.2813,679.54242 735.1188,672.4779 731.5789,666.50819 C 728.0391,660.53848 725.1428,655.28046 725.1428,654.8237 C 725.1428,652.08326 707.3548,632.86221 704.8187,632.86221 C 704.5237,632.86221 701.434,631.54381 697.9526,629.93244 C 690.5283,626.49608 688.1244,623.58394 685.8019,615.2127 C 683.7943,607.97678 683.7985,606.06884 685.8556,590.76424 C 687.3697,579.49984 687.3547,578.98212 685.3349,572.76424 C 684.1911,569.24312 680.8478,561.63721 677.90528,555.86221 C 672.24145,544.74633 669.98374,541.11654 652.19487,514.52657 C 651.39849,513.33617 647.98864,509.43721 644.61743,505.86221 C 641.24622,502.28721 637.99057,498.46221 637.38266,497.36221 C 636.32955,495.45662 636.14435,495.44054 633.45932,497.02153 C 631.90939,497.93416 627.88074,499.25103 624.50677,499.94791 C 619.13974,501.05646 617.38834,500.98643 610.50756,499.38814 C 603.86799,497.84589 602.06426,496.96095 598.92869,493.70734 L 595.21454,489.85337 L 590.92869,491.75789 C 577.57005,497.6941 562.69786,496.68956 553.46885,489.22767 C 548.41323,485.14006 546.7686,480.71279 547.3451,472.7428 C 547.90315,465.0278 550.24937,461.87734 557.09995,459.64415 C 559.99865,458.69921 563.86411,456.78671 565.68985,455.39415 C 567.5156,454.00158 569.41098,452.86221 569.9018,452.86221 C 570.39263,452.86221 571.7828,451.80991 572.99108,450.52376 L 575.18794,448.1853 L 573.26072,441.99313 C 571.35384,435.86631 569.15347,432.31523 562.21511,424.16708 C 560.25036,421.85976 557.06784,417.94999 555.14284,415.47872 C 550.27722,409.23234 535.20629,397.32673 517.10626,385.43091 C 513.40217,382.99648 505.3676,373.54612 498.33725,363.35455 C 493.12349,355.79641 491.32067,349.86765 490.58556,337.86221 C 490.26562,332.63721 489.32417,324.71255 488.49345,320.25185 C 486.66695,310.44418 486.94495,306.51178 489.49906,306.02698 C 490.51998,305.8332 491.78363,306.103 492.30717,306.62654 C 493.94532,308.26469 496.15501,320.89936 496.80811,332.36221 C 497.15281,338.41221 497.97241,345.16221 498.62945,347.36221 C 499.86686,351.50554 507.10551,363.18881 511.58197,368.26775 C 512.99045,369.8658 514.14284,371.54788 514.14284,372.00571 C 514.14284,372.87499 522.88829,379.82798 537.84209,390.84756 C 550.85888,400.43974 556.9772,405.77221 560.16964,410.30733 C 561.73954,412.53752 565.63825,417.10501 568.83343,420.45733 C 572.0286,423.80964 575.29843,427.85964 576.09971,429.45733 C 576.90099,431.05501 578.15196,433.08753 578.87965,433.97403 C 579.60733,434.86053 580.62344,438.17088 581.13765,441.33035 C 583.38702,455.151 594.78267,471.59419 606.11689,477.37379 C 612.13232,480.44121 619.50541,479.83594 632.89404,475.17563 C 639.88854,472.74099 646.72974,462.54433 653.11013,445.04399 C 656.60275,435.46431 656.796,433.23974 654.42912,429.86054 C 649.23711,422.44791 639.85879,399.04067 638.2031,389.36221 C 637.54448,385.51221 635.48509,377.41221 633.62667,371.36221 C 631.76825,365.31221 629.97539,359.37049 629.64255,358.15839 C 629.04505,355.98252 627.79111,349.24746 622.69868,320.86221 C 621.26793,312.88721 619.8735,305.6417 619.59994,304.76109 C 618.853,302.35656 621.69386,291.32493 625.23934,282.86221 C 628.90633,274.10945 629.76929,272.86221 632.1583,272.86221 C 634.75726,272.86221 635.51282,269.85556 633.40689,267.89359 C 632.42293,266.97688 628.47349,263.51917 624.63035,260.20977 C 615.12451,252.02411 609.14284,246.19903 609.14284,245.1277 C 609.14284,244.63748 607.85754,243.00499 606.28661,241.49995 C 603.21701,238.55909 600.70152,232.3923 601.30125,229.27818 C 601.82865,226.53959 605.34526,226.88379 606.80769,229.81713 C 607.48084,231.16734 609.66125,234.14637 611.65305,236.43719 C 614.78391,240.03809 615.97677,240.68686 620.45867,241.22637 C 623.30996,241.56959 629.46784,243.24625 634.14284,244.95228 C 646.43203,249.43691 648.08544,249.86164 653.7832,249.99758 C 659.31342,250.12952 669.53432,246.13135 677.85482,240.58134 C 686.991,234.48724 697.2201,219.34777 697.3247,211.76503 C 697.3526,209.74751 696.848,206.49896 696.2035,204.54604 L 695.0317,200.99527 L 691.3848,203.14694 C 688.8017,204.67104 684.2242,205.72474 675.69043,206.75965 C 660.16689,208.64224 651.14914,208.61168 643.46596,206.65044 C 637.97703,205.24931 636.97466,205.23917 634.46596,206.55942 C 632.41582,207.63835 630.13693,207.86366 626.14284,207.38229 C 614.53252,205.98304 601.18036,205.77204 598.90336,206.95185 C 592.82264,210.10252 586.79102,215.68676 584.41862,220.36221 C 583.02322,223.11221 580.55252,227.04971 578.92816,229.11221 C 577.3038,231.17471 576.22556,232.86221 576.53206,232.86221 C 578.36013,232.86221 587.34524,227.87522 591.32225,224.65324 C 594.02703,222.46195 597.08639,220.86221 598.57225,220.86221 C 604.87639,220.86221 599.49536,232.78338 589.8831,240.11221 C 587.89935,241.62471 585.75493,242.86221 585.11772,242.86221 C 584.48051,242.86221 582.76299,243.7911 581.301,244.92641 C 576.05562,248.99972 559.88524,258.10412 554.59115,259.96485 C 547.97464,262.29036 536.14284,262.60818 536.14284,260.4604 C 536.14284,259.48739 538.02316,258.84035 542.28984,258.34515 C 549.59896,257.49684 560.48775,252.23409 570.14284,244.88329 C 573.71784,242.1615 578.08931,239.64623 579.85721,239.29379 C 581.62512,238.94135 583.53443,238.0953 584.10014,237.41366 C 584.76341,236.61447 583.2667,236.8176 579.88577,237.98563 C 577.00216,238.98184 572.95534,239.81161 570.89284,239.82956 C 567.29324,239.8609 567.14284,239.72674 567.14284,236.48465 C 567.14284,234.62238 567.85365,232.51718 568.72723,231.79217 C 570.38917,230.41288 574.12474,225.10993 578.18773,218.36221 L 580.59624,214.36221 L 577.61954,216.70135 C 564.69095,226.86085 557.21679,230.87204 553.71719,229.52912 C 551.45857,228.6624 551.77685,224.49957 554.27243,222.2672 C 556.37562,220.38582 560.16069,212.793 560.12384,210.5293 C 560.11339,209.8874 558.79334,211.45027 557.19039,214.00234 C 555.58744,216.55442 551.22041,221.65323 547.48588,225.33304 C 541.95247,230.78537 540.20897,231.95215 538.06512,231.6375 C 535.93302,231.32457 535.23372,231.7831 534.37549,234.0568 C 533.60119,236.10816 532.63937,236.86221 530.79709,236.86221 C 527.96749,236.86221 526.63675,234.25388 527.60839,230.61221 C 528.2369,228.25661 523.19787,238.24749 520.00751,245.68247 C 518.50521,249.18351 517.726,249.942 515.89826,249.68247 C 512.8024,249.24287 513.08177,247.52109 518.53058,233.45926 C 521.08946,226.85551 523.14284,219.88001 523.14284,217.79104 C 523.14284,212.30496 523.97745,210.86221 527.15105,210.86221 C 530.37906,210.86221 533.42917,215.16519 535.38523,222.47867 C 536.03006,224.88962 536.86983,226.86221 537.25138,226.86221 C 537.63293,226.86221 540.07842,224.72471 542.68581,222.11221 C 549.55274,215.23181 554.92123,206.55085 555.72115,201.03378 C 556.69111,194.34395 557.60439,193.12898 562.25354,192.34351 C 567.24047,191.50097 568.11604,192.4767 568.10308,198.86221 C 568.09502,202.83512 567.64059,205.70818 565.60545,214.65304 C 565.09462,216.89827 565.14414,216.9129 568.09311,215.38792 C 569.74799,214.53215 573.98102,211.13878 577.49985,207.84709 C 581.28496,204.30631 584.79136,201.86221 586.08601,201.86221 C 587.28958,201.86221 589.25724,201.33187 590.45858,200.68367 C 594.2098,198.65965 607.33949,195.62539 614.39768,195.15137 C 618.68737,194.86327 623.45498,195.27515 627.46157,196.27996 C 630.93155,197.1502 636.04779,197.86221 638.831,197.86221 C 641.61421,197.86221 645.86046,198.57149 648.26711,199.43839 C 654.1922,201.57268 660.66687,201.60886 673.14284,199.57741 C 687.8673,197.17983 687.94,197.15512 689.5775,193.98858 C 691.2521,190.75018 696.0327,188.3751 698.9883,189.31315 C 700.3874,189.75722 701.1875,191.19947 701.6739,194.15394 C 702.0549,196.46849 703.037,199.93721 703.8565,201.86221 C 705.6951,206.1815 705.8434,214.20936 704.1779,219.25585 C 702.3087,224.91973 696.1826,233.59634 689.1522,240.5374 C 684.6418,244.99042 680.2126,248.05815 673.27017,251.5374 C 663.80833,256.27927 663.48814,256.36045 654.64284,256.25979 C 647.57414,256.17935 643.50677,255.49 635.6886,253.04736 C 630.21377,251.33686 625.57795,250.09377 625.38678,250.28493 C 625.19561,250.4761 627.13656,252.3717 629.69999,254.49736 C 644.12806,266.46148 648.20868,271.48624 653.54721,283.86221 C 657.21663,292.36875 658.11555,305.95714 655.69722,316.36221 C 654.80241,320.21221 653.65218,325.57279 653.14115,328.27462 C 652.63013,330.97645 651.29645,336.90618 650.17743,341.45181 C 649.0584,345.99743 648.14284,350.1709 648.14284,350.72619 C 648.14284,351.28147 650.06073,354.57674 652.40481,358.049 C 660.05224,369.37706 666.8659,387.54539 668.27351,400.36221 C 668.81714,405.31221 670.18226,413.63721 671.30711,418.86221 C 672.43196,424.08721 673.4978,430.28238 673.67564,432.62925 C 674.19739,439.51466 677.89962,448.89775 683.2371,456.86221 C 684.1585,458.23721 686.1382,461.61221 687.6362,464.36221 C 690.5251,469.6655 693.679,474.74083 698.2863,481.50067 C 701.4505,486.14325 709.1428,501.64719 709.1428,503.3821 C 709.1428,504.00123 710.4186,507.17503 711.9779,510.435 C 713.5372,513.69496 715.835,519.06221 717.0842,522.36221 C 718.3334,525.66221 720.4326,530.73468 721.7491,533.63436 C 723.0657,536.53405 724.1428,539.70655 724.1428,540.68436 C 724.1428,541.66218 724.5818,542.90121 725.1184,543.43777 C 725.655,543.97432 726.9793,547.95631 728.0615,552.28663 C 729.1436,556.61694 731.4046,562.37284 733.0859,565.07751 C 734.7672,567.78219 736.1428,570.19512 736.1428,570.43959 C 736.1428,570.68406 738.4053,574.49414 741.1706,578.90642 C 747.8287,589.53029 751.4789,598.55144 753.0892,608.36221 C 754.7655,618.57488 758.3303,630.49836 761.025,634.9052 C 762.5528,637.40385 764.3129,640.91125 764.9363,642.69943 C 765.5596,644.48761 766.9273,647.16826 767.9757,648.65644 C 769.024,650.14461 770.794,653.16221 771.9091,655.36221 C 773.0241,657.56221 776.2828,662.28721 779.1505,665.86221 C 782.0182,669.43721 784.7487,673.36209 785.2182,674.58416 C 785.6878,675.80624 788.4505,680.21342 791.3574,684.37789 C 794.2644,688.54237 797.3178,692.98321 798.1428,694.24643 C 798.9678,695.50965 800.8803,698.40603 802.3928,700.68283 C 803.9053,702.95963 805.1428,705.04773 805.1428,705.32304 C 805.1428,705.59836 807.3413,709.0948 810.0284,713.09292 C 815.1886,720.77078 820.9985,726.23596 830.3815,732.23816 C 837.9537,737.08208 844.1428,743.07751 844.1428,745.56889 C 844.1428,748.0565 837.1965,760.85428 833.423,765.31879 C 831.8939,767.12789 828.9243,770.68102 826.8238,773.21464 C 821.873,779.18635 811.3192,784.47703 801.6428,785.83803 C 792.8269,787.07801 792.4611,787.066 787.7338,785.38147 z M 812.2976,776.43654 C 817.4487,773.9604 824.3135,767.84992 828.1428,762.33255 C 835.4571,751.79404 837.201,748.62091 836.6437,746.86486 C 836.0631,745.03566 829.1294,738.86221 827.6555,738.86221 C 827.2708,738.86221 824.1856,737.02769 820.7994,734.78551 C 814.3967,730.54578 807.6706,722.01981 800.1428,708.60116 C 796.7428,702.54034 793.1365,696.98417 789.2783,691.86221 C 788.2426,690.48721 784.7555,685.0925 781.5293,679.87397 C 778.303,674.65544 774.5096,669.03044 773.0994,667.37397 C 762.5347,654.9642 750.2971,628.01169 746.9865,609.86221 C 745.3644,600.96925 743.1423,595.16511 738.7602,588.37464 C 730.8269,576.08142 723.167,560.71854 723.1235,557.01325 C 723.0983,554.87247 714.6727,531.7098 708.3363,516.36221 C 701.3019,499.32394 697.0217,490.63876 690.6816,480.53854 C 687.6353,475.68553 685.1428,471.4571 685.1428,471.14205 C 685.1428,470.82699 683.624,468.27264 681.7677,465.46572 C 679.91135,462.65879 676.29317,456.17249 673.72727,451.05172 C 669.66163,442.9379 668.73746,439.85319 666.53696,427.05172 C 665.14818,418.97249 663.62354,408.53721 663.14886,403.86221 C 661.64435,389.04456 652.36681,363.70284 647.93123,362.29505 C 646.83688,361.94772 645.55393,362.05112 645.08021,362.52484 C 643.67023,363.93482 643.47699,387.94943 644.84817,391.36221 C 645.5111,393.01221 647.68755,398.61471 649.68473,403.81221 C 652.92466,412.24385 657.20326,421.15977 660.93381,427.25346 C 662.94444,430.53774 661.89417,440.38154 658.68165,448.36221 C 657.13188,452.21221 653.90165,459.33333 651.50336,464.18692 C 649.10507,469.0405 647.14274,473.5405 647.14261,474.18692 C 647.14249,474.83333 645.81034,477.83721 644.18229,480.86221 C 639.45233,489.65072 640.07637,492.211 649.57251,502.97673 C 656.88682,511.26893 663.15863,519.91948 670.64284,532.03847 C 671.19284,532.92907 673.13582,535.79647 674.96057,538.41046 C 679.30902,544.63972 689.5065,565.03637 692.0557,572.60359 C 694.0606,578.55503 694.0607,578.59253 692.1039,589.83604 C 689.8274,602.9167 689.7519,604.92132 691.2672,612.06299 C 692.5373,618.04863 697.8058,624.08648 702.7952,625.27434 C 707.6176,626.42241 718.7718,634.6878 722.8868,640.16237 C 725.0365,643.02228 730.3368,651.88721 734.6653,659.86221 C 742.2959,673.92112 747.2183,681.84314 754.932,692.47887 C 768.158,710.71525 773.9293,719.99763 778.6414,730.61221 C 780.1674,734.04971 781.7325,736.86221 782.1193,736.86221 C 782.5062,736.86221 783.3953,738.59726 784.0952,740.71788 C 785.0463,743.59964 785.0867,745.09859 784.2553,746.65214 C 782.9116,749.16289 782.8443,758.98748 784.1102,767.86221 C 784.9014,773.40944 785.5214,774.77753 788.3401,777.19558 C 791.4631,779.87477 792.0509,780.00516 799.1428,779.5919 C 804.591,779.27442 808.1899,778.41118 812.2976,776.43654 z M 624.68091,493.74831 C 629.45384,492.54647 635.44503,487.63617 636.60755,483.9734 C 637.0024,482.72935 637.11289,481.49893 636.8531,481.23914 C 636.59331,480.97934 631.75262,481.96194 626.09601,483.4227 C 615.924,486.0495 609.89096,486.26933 601.89284,484.30459 C 597.40613,483.20243 598.51886,486.12667 603.89284,489.56056 C 612.16319,494.84519 616.69735,495.75859 624.68091,493.74831 z M 583.21134,488.26155 C 588.91161,486.58169 597.04402,482.0084 597.10633,480.44766 C 597.16046,479.09173 588.84328,470.87847 587.4072,470.86973 C 586.7276,470.86559 583.20273,472.43721 579.57415,474.36221 C 572.92833,477.88789 568.64265,478.86279 569.36903,476.68365 C 569.80035,475.38967 569.89113,475.33835 578.89284,471.29902 C 585.27915,468.43331 586.29198,467.0608 583.64284,464.86221 C 582.81784,464.17752 582.14284,463.17793 582.14284,462.64089 C 582.14284,460.66986 578.88077,454.8625 577.7789,454.87192 C 577.15407,454.87725 574.66955,456.45025 572.25775,458.36745 C 569.84595,460.28466 565.19517,462.82955 561.92268,464.02275 C 554.53311,466.71713 552.65,469.24989 553.48841,475.36675 C 554.24754,480.90526 555.75316,483.42144 559.82708,485.95993 C 565.89881,489.74326 575.10778,490.64966 583.21134,488.26155 z M 640.14284,359.75697 C 640.14284,357.84983 643.99141,340.56485 649.16827,319.22129 C 652.17037,306.844 651.8361,298.0587 648.00028,288.52406 C 646.26596,284.21307 644.22178,280.446 643.45766,280.15278 C 641.83375,279.52962 638.14284,282.56053 638.14284,284.5172 C 638.14284,285.25695 638.84541,285.86221 639.70411,285.86221 C 640.99117,285.86221 641.15132,286.69648 640.61593,290.61221 C 640.25873,293.22471 639.57007,296.90569 639.08558,298.79217 C 638.52781,300.96394 638.61033,303.83315 639.31054,306.61394 C 640.14341,309.92156 640.11562,312.00971 639.19795,315.07259 C 637.62986,320.30644 634.14265,325.69042 631.8324,326.44445 C 630.49649,326.88047 630.15199,327.73347 630.51806,329.69878 C 630.79092,331.16367 631.28243,334.61221 631.61031,337.36221 C 632.10669,341.52539 635.28516,356.06462 636.69307,360.61221 C 637.34669,362.72338 640.14284,362.03018 640.14284,359.75697 z M 633.89284,294.87586 C 634.65214,294.86757 635.14284,293.48826 635.14284,291.36221 C 635.14284,288.16875 634.88946,287.86221 632.24983,287.86221 C 629.17336,287.86221 628.14284,289.29205 628.14284,293.56063 C 628.14284,295.70135 628.49268,296.00172 630.39284,295.4925 C 631.63034,295.16086 633.20534,294.88337 633.89284,294.87586 z M 582.49263,579.33135 C 581.40551,576.49837 583.07276,571.86134 589.05375,561.08324 C 592.70804,554.498 596.23767,546.31169 598.20347,539.86221 C 603.65357,521.98129 603.8914,521.371 605.53893,521.03889 C 606.75386,520.79397 607.14295,521.52153 607.14328,524.03889 C 607.14382,528.18514 600.54594,552.06797 598.01743,557.07237 C 595.4765,562.10135 595.62411,562.36003 599.39284,559.48268 C 603.7589,556.14926 608.80845,547.57629 610.68743,540.30706 C 614.19305,526.7448 614.1448,526.86221 616.21277,526.86221 C 619.3871,526.86221 619.55239,529.24543 617.27999,542.24961 C 614.34613,559.0391 614.28391,558.69994 619.51206,554.41586 C 627.75288,547.66313 631.42147,529.09414 627.62284,513.36221 C 625.40281,504.168 625.58947,502.86221 629.12379,502.86221 C 631.40835,502.86221 632.21521,503.38783 632.57765,505.11221 C 634.60744,514.76954 635.14026,518.7575 635.12273,524.16143 C 635.07462,538.99973 631.18915,552.17124 625.23304,557.68694 C 623.25843,559.51555 619.53734,563.0422 616.96395,565.52396 C 610.92024,571.35247 608.75628,571.11325 608.3367,564.57024 L 608.03056,559.79626 L 602.22105,564.57924 C 599.02582,567.20987 594.49982,571.94971 592.16329,575.11221 C 589.0286,579.35501 587.28137,580.86221 585.49756,580.86221 C 584.16794,580.86221 582.81572,580.17333 582.49263,579.33135 z M 607.63816,465.85463 C 607.2567,465.23743 607.24693,463.12092 607.61643,461.15128 C 607.98594,459.18164 607.89434,457.29834 607.41288,456.96617 C 605.84249,455.88269 602.14284,446.06667 602.14284,442.98353 C 602.14284,441.15766 601.3931,439.45048 600.23498,438.6393 C 599.18566,437.90433 596.50962,435.10355 594.28822,432.41536 C 590.30951,427.60056 590.25794,427.43546 590.82759,421.33526 C 591.21133,417.22579 591.02524,414.90756 590.27434,414.44348 C 589.65202,414.05886 589.14284,412.87073 589.14284,411.80319 C 589.14284,410.73565 588.51598,409.86221 587.74983,409.86221 C 586.00496,409.86221 585.14284,407.68564 585.14284,403.28042 C 585.14284,401.40041 584.69284,399.86221 584.14284,399.86221 C 583.59284,399.86221 583.14284,398.49809 583.14284,396.83083 C 583.14284,395.06857 582.51939,393.5602 581.6537,393.228 C 579.96217,392.5789 578.62653,388.01467 577.65327,379.5575 C 577.08781,374.6439 576.61357,373.61148 574.56405,372.83225 C 572.6244,372.0948 572.14284,371.19929 572.14284,368.32978 C 572.14284,366.35972 571.64174,362.75781 571.02929,360.32553 C 570.41683,357.89325 570.20041,354.76898 570.54834,353.38271 C 571.06295,351.33235 571.79012,350.86221 574.44683,350.86221 C 577.98809,350.86221 577.50264,349.8225 580.5166,363.86221 C 580.81178,365.23721 581.30953,368.00013 581.62271,370.00202 C 582.01303,372.49705 582.81341,373.8043 584.16748,374.1584 C 585.46236,374.49702 586.14284,375.52625 586.14284,377.14615 C 586.14284,378.50529 586.81784,380.17752 587.64284,380.86221 C 588.62592,381.67809 589.14284,383.90756 589.14284,387.33165 C 589.14284,391.12085 589.6923,393.18972 591.14284,394.86221 C 592.24284,396.13052 593.14284,398.16927 593.14284,399.39277 C 593.14284,400.61628 593.74988,402.12112 594.49183,402.73688 C 595.35655,403.45454 596.06571,407.28021 596.46731,413.3939 C 597.19796,424.51701 598.93232,427.62428 607.63406,433.40017 C 610.48064,435.28962 613.33462,437.98771 613.97625,439.39592 C 615.24504,442.18062 615.45309,455.94529 614.32337,462.36221 C 613.73138,465.72479 613.19787,466.41118 610.97544,466.66952 C 609.52139,466.83854 608.01961,466.47184 607.63816,465.85463 z M 432.24563,459.52854 C 429.14066,454.50458 427.14284,443.09586 427.14284,430.38858 C 427.14284,406.52494 436.7652,345.63695 441.42349,340.02405 C 442.041,339.27999 443.76997,333.74058 445.26565,327.71424 C 448.16316,316.03964 449.26838,313.86221 452.29667,313.86221 C 455.42802,313.86221 455.58366,316.70159 452.78119,322.70143 C 451.32694,325.81486 449.47771,332.18721 448.67181,336.86221 C 444.97156,358.32704 441.80036,374.14123 440.14935,379.36221 C 438.14588,385.69774 436.43395,405.78737 436.24084,425.22879 L 436.14284,435.09536 L 433.682,434.62495 C 431.29721,434.16906 431.23799,434.2968 431.76552,438.75837 C 432.98812,449.09846 434.20235,454.13704 436.12086,456.83134 C 437.23295,458.39313 438.14284,460.38898 438.14284,461.26658 C 438.14284,464.11042 434.39467,463.00574 432.24563,459.52854 z M 492.39284,459.19993 C 491.70534,458.92252 491.14284,458.1269 491.14284,457.43189 C 491.14284,456.73688 490.19698,455.08688 489.04093,453.76522 C 487.88488,452.44356 484.67199,446.86221 481.90117,441.36221 C 471.17004,420.06122 464.16325,377.36268 465.43072,340.99336 C 466.0175,324.15606 467.61744,315.58166 470.26701,315.07476 C 472.83574,314.58332 473.12081,317.06299 471.58399,326.53072 C 469.67302,338.30348 469.62002,361.44761 471.50237,362.16993 C 473.0581,362.76692 474.22809,372.188 474.56885,386.86221 C 474.8144,397.43607 478.40648,415.79968 480.54056,417.39109 C 481.29941,417.95697 482.59576,420.88197 483.42134,423.89109 C 488.05772,440.79005 492.7225,452.86636 495.20688,454.40179 C 495.72166,454.71994 496.14284,456.07869 496.14284,457.42123 C 496.14284,459.76647 495.06448,460.27796 492.39284,459.19993 z M 514.97285,430.61042 C 513.50436,428.27391 510.78071,423.43721 508.9203,419.86221 C 507.05989,416.28721 503.53639,410.03214 501.09029,405.96206 C 492.74624,392.07833 489.09402,384.92376 488.16482,380.64153 C 487.65411,378.2879 486.721,374.11221 486.09124,371.36221 C 485.46149,368.61221 484.58778,364.78721 484.14966,362.86221 C 483.71154,360.93721 482.6335,355.76221 481.754,351.36221 C 480.8745,346.96221 479.7022,341.44325 479.14888,339.09786 C 477.86481,333.65499 477.84596,319.77328 479.11809,316.42731 C 479.70722,314.87779 480.86951,313.86221 482.05375,313.86221 C 483.84556,313.86221 484.05106,314.74378 484.44322,324.11221 C 484.89395,334.88017 486.78569,347.63836 490.04064,361.86221 C 491.11046,366.53721 492.53272,372.83721 493.20122,375.86221 C 494.61549,382.2618 496.92421,387.09322 505.00619,400.56627 C 513.22383,414.26547 521.51453,431.45121 520.80173,433.30874 C 519.78112,435.96841 517.74913,435.02776 514.97285,430.61042 z M 552.64284,348.84655 C 551.54284,348.38248 548.74929,347.97115 546.43495,347.9325 C 542.98887,347.87493 541.51491,347.18329 538.29352,344.11221 C 533.72239,339.75437 531.32983,333.11768 530.45251,322.36221 L 529.88153,315.36221 L 526.0792,315.2162 C 523.98792,315.13589 519.77172,313.92329 516.70986,312.52152 C 512.25095,310.48017 511.14284,309.50403 511.14284,307.61753 C 511.14284,302.96021 515.14724,301.50854 519.72336,304.50693 C 521.84415,305.89652 522.60724,305.95163 524.64284,304.86221 C 526.65192,303.78698 527.43347,303.81997 529.3475,305.0608 C 530.60994,305.87921 534.67785,306.82716 538.38731,307.16737 C 549.20386,308.15939 549.75531,308.63106 563.10693,328.31105 C 566.64154,333.52098 567.13894,334.94939 567.11142,339.81105 C 567.08556,344.37836 566.68679,345.64444 564.86142,346.95466 C 562.11481,348.92612 555.32382,349.97762 552.64284,348.84655 z M 559.14284,334.0656 C 559.14284,333.07747 558.46262,331.38997 557.63123,330.3156 C 556.79984,329.24124 554.69677,326.11221 552.95772,323.36221 C 551.21868,320.61221 548.89547,317.34971 547.79502,316.11221 C 545.73359,313.79404 541.73492,313.09519 540.64284,314.86221 C 540.30292,315.41221 538.70136,315.86221 537.08382,315.86221 C 533.58838,315.86221 533.53594,316.23597 536.18963,322.23509 C 538.33349,327.08163 540.25939,327.95991 543.51808,325.57709 C 545.03714,324.46633 545.7896,324.77159 549.06424,327.82709 C 551.148,329.77141 553.38397,332.37471 554.03305,333.61221 C 555.46217,336.33687 559.14284,336.66345 559.14284,334.0656 z "
       id="path1933"
       inkscape:export-filename="/home/jan/work/projects/gnuviech/gnuviechweb/trunk/data/hetzgnu/hetzgnu_for_logo_active.png"
       inkscape:export-xdpi="6.5779529"
       inkscape:export-ydpi="6.5779529" />
  </g>
</svg>
