<?xml version="1.0" encoding="UTF-8" standalone="no"?>
<!-- Created with Inkscape (http://www.inkscape.org/) -->
<svg
   xmlns:svg="http://www.w3.org/2000/svg"
   xmlns="http://www.w3.org/2000/svg"
   version="1.0"
   width="466"
   height="528"
   id="svg1467">
  <defs
     id="defs1521" />
  <path
     d="M 466,0 L 466,528 L 0,528 L 0,0 L 466,0 z "
     style="fill:#fcfcfc"
     id="path1468" />
  <path
     d="M 372,46 C 398.22,52.251 405.23,85.92 401,110 C 389.71,136.85 361.77,159.85 331,158 L 313.25,158.25 L 345.75,234.75 C 328.66,247.31 304.95,237.159 288,229 L 283,231 L 300.75,244.25 L 322.25,264.75 C 350.86,273.423 378.21,286.88 404.75,301.25 L 414.75,316.25 L 413,347 L 415.25,370.75 L 426,462 L 423.75,464.75 L 421,463 L 407.25,334.2 C 409.412,324.03 407.5593,310.96 399.75,304.2 C 373.01,319.08 345.23,342.35 332.25,370.7 L 337.75,367.7 C 349.07,360.036 362.59,345.43 376.75,350.2 L 372,359.95 L 357.25,364.7 L 365,355.95 C 354.58,362.871 339.86,367.78 332.25,379.2 L 353.25,377.2 C 358.262,377.685 366.14,374.461 369,379.95 L 370.75,382.7 L 349,387.95 C 345.199,381.732 336.4,387.4544 331.25,389.2 L 339,478.95 L 337,480.95 L 326.75,432.2 C 326.345,416.82 321.673,398.88 327.75,384.2 C 322.878,384.5924 324.044,379.123 324,375.95 C 332.509,342.91 363.97,321.75 390,301.95 C 368.78,285.52 342.06,279.26 318,267.95 L 274.25,324.2 L 269.75,335.7 L 256.25,332.2 L 263,345.95 C 260.111,370.4 244.51,390.71 234.75,412.7 L 212.25,443.7 L 210.25,440.2 L 226.25,414.2 C 239.84,393.68 248.76,370.9 256,347.95 L 245.25,321.2 L 263,326.95 L 274.75,315.7 L 312,262.95 L 293,246.95 L 285,253.95 L 250.25,300.2 L 235.75,329.7 L 198,436 L 175,389 L 165.75,354.25 L 153.25,361.25 C 157.576,386.91 172.69,409.37 187,431 L 185.75,435.75 C 168,417.06 155.37,390.79 149.75,365.25 L 144,363 L 147.75,355.25 C 140.861,354.088 137.08,347.839 134.25,341.75 L 134.75,330.25 L 126,328 L 132.25,322.25 C 137.339,318.768 141.601,312.455 141.75,306.25 L 125.25,303.75 C 122.841,294.994 120.046,288.64 112,284 C 94.05,292.272 75.61,305.69 63,320 L 86,359 L 85,386 C 79.654,430.72 107.64,468.46 99.75,511.8 L 96,509.05 C 96.2637,484.36 92.716,461.73 85,439.05 L 72,370.05 L 68.25,362.3 L 79.75,363.8 L 59.75,327.3 L 57,338.05 L 63,377.05 C 58.273,396.66 60.069,418.64 61,439.05 C 65.63,456.25 77.71,476.11 67,493.05 L 62,463.05 L 51,332.05 L 55.25,309.3 L 61,312.05 L 111.75,276.8 L 110.75,266.3 C 104.52,259.642 94.21,252.49 98.25,242.3 L 103.25,237.3 C 123.98,233.881 128.99,211.09 141,197.05 L 140,195.05 C 122.91,199.423 100.56,206.19 85,195.05 C 98.71,179.83 118.3,164.54 128,145.05 L 110.25,143.8 C 78.48,123.56 72.15,76.1 97.25,48.3 L 102.75,49.3 C 99.645,65.09 94.448,91.8 111.25,101.8 L 125.75,102.8 L 141.75,90.8 C 156.18,64.33 198.9,47.72 217,78.05 C 231.09,66.59 248.53,62.33 267,63.05 C 292.5,70.7 313.29,87.34 332.25,106.8 L 340.25,110.8 C 351.19,115.167 363.61,116.103 373.75,108.8 C 386.85,91.59 388.53,62.65 372,46.05 L 372,46 z "
     style="fill:#161616"
     id="path1469" />
  <path
     d="M 93,62 L 94,63 L 96.25,94.75 L 107.75,105.25 L 113,110 C 134.49,111.145 146.66,89.71 161.25,77.25 L 182,68 C 192.92,67.2049 206.49,69.682 210.75,80.75 L 188.75,98.75 C 177.01,98.4746 166.29,102.03 157.25,109.25 L 159,114 L 164.75,109.75 L 170.75,110.25 L 161.75,118.75 C 150.04,118.2357 141.87,127.463 134.75,135.75 L 131.75,136.75 L 127,136 C 118.897,138.959 110.68,134.581 103.25,131.75 C 93.635,122.428 88.68,110.04 88,97 C 83.883,85.62 87.7503,72.29 93,62 z "
     style="fill:#f5f5f5"
     id="path1470" />
  <path
     d="M 195,102 L 206.75,91.75 C 209.998,87.017 215.438,83.072 220.75,82.75 L 239.75,73.75 C 248.634,68.477 260.68,68.014 271,70 L 273.25,71.75 C 290.44,77.238 302.96,91.25 317.75,101.25 C 325.588,111.91 338.2,117.43 350,122 L 356,122 C 366.06,123.118 374.93,116.609 381.75,112.75 L 383.25,105.25 C 391.903,94.8 389.361,80.9 389.25,68.25 C 398.01,76.445 395.613,90.43 396,102 L 390.25,111.25 C 387.253,122.67 379.82,134.5 368.25,139.25 C 359.011,146.405 347.92,151.04 336,151 L 314,152 L 309.25,149.75 L 292.75,132.25 L 266.75,119.25 C 254.41,114.641 239.94,113.485 227,117 L 207.25,113.75 C 203.013,111.274 195.21,109.083 196.75,103.25 L 195,102 z "
     style="fill:#f8f8f8"
     id="path1471" />
  <path
     d="M 195,102 L 194.25,104.75 L 195,102 z "
     style="fill:#d5d5d5"
     id="path1472" />
  <path
     d="M 192,128 L 192.75,126.25 L 181.75,121.25 L 172.25,114.75 L 177.25,110.25 L 180.75,109.75 L 181,106 C 181.7962,102.831 185.562,103.988 186.75,106.25 L 186.75,109.75 L 185,114 L 198.75,124.25 C 199.2584,127.684 194.685,128.559 192,128 z "
     style="fill:#e0e0e0"
     id="path1473" />
  <path
     d="M 181,106 C 181.1398,107.885 179.115,105.8602 181,106 z "
     style="fill:#e9e9e9"
     id="path1474" />
  <path
     d="M 201,121 L 203.75,120.25 L 201,121 z "
     style="fill:#c9c9c9"
     id="path1475" />
  <path
     d="M 192,128 L 193,129 L 196,129 L 214.75,131.75 L 215,131 L 211,128 L 203,125 L 200.25,124.75 L 201,121 L 202,122 L 230,123 L 259,122 L 299.75,146.25 C 313.35,166.5 320.38,189.47 326.25,212.75 L 337.75,231.25 L 337.75,234.75 C 320.86,236.564 305.38,232.183 291.25,224.75 L 289.25,221.75 L 282.75,212.25 C 275.03,207.594 271.8,200.79 274,192 C 269.711,187.456 270.096,177.87 273,172 L 273,155 L 275,150 C 272.179,146.866 269.032,137.41 261.25,139.25 L 260,148 L 267.75,154.25 L 262,197 L 270.25,206.75 C 278.944,213.161 278.109,225.49 275.75,234.75 L 259.75,248.75 L 257,242 L 251,251 L 247.75,246.25 C 235.11,246.9918 232.74,262.7 231.75,272.75 L 229.75,274.75 L 225.75,266.25 L 217.75,277.75 L 209.75,279.75 L 192.75,297.75 L 188,297 L 186.25,298.25 L 187,304 C 182.32,312.501 175.45,320.79 166.25,324.25 L 162.25,332.25 L 164,342 L 158,351 L 155.75,348.25 C 147.752,346.529 138.49,339.277 139.25,330.25 L 142,329 L 143,322 L 145,308 L 145.25,306.25 L 147.75,305.25 L 149.75,314.75 L 154,310 C 156.262,312.096 159.559,314.734 161.75,310.75 C 161.4756,307.549 159.031,298.85 154,301 L 151,301 L 129.25,298.75 L 127.25,296.75 L 127.25,292.25 L 129.75,292.75 L 134.25,289.25 L 155,290 L 170.75,282.75 C 173.515,279.651 182.56,279.092 178.75,273.25 L 175.25,273.25 L 145,285 L 120,283 L 117.25,280.75 L 119.25,269.25 L 121.75,269.75 L 122,268 C 124.764,266.629 121.3631,262.965 119.25,262.75 L 115.75,255.25 L 116.75,260.75 L 112.25,260.75 L 104,246 L 107.25,242.25 L 124.75,231.75 L 125.25,228.25 L 146.25,196.25 L 147.75,196.75 L 149,192 L 146.25,183.25 L 149.75,181.25 L 150.25,185.75 L 155.25,181.25 L 157.75,181.75 L 158.25,179.25 C 162.739,174.376 163.137,166.26 160.75,160.25 L 159.25,159.75 L 153.25,152.75 L 149.25,146.25 L 159.25,129.25 L 167.25,121.25 L 174.75,126.25 C 179.675,134.731 189.34,139.12 197,143 L 191.25,147.25 C 187.899,149.562 191.6071,156.571 195,154 L 202.75,146.75 L 198.25,142.75 L 198,141 L 199,139 L 197.75,136.25 L 184.25,130.75 L 183.25,128.25 L 192,128 z "
     style="fill:#f7f7f7"
     id="path1476" />
  <path
     d="M 136,142 C 140.05,134.007 147.35,128.26 155,124 L 158.75,125.25 L 158.75,127.75 L 145.75,144.75 L 143,148 L 143.25,150.75 L 147.75,154.25 L 149,158 L 142,163 L 147,169 L 145.75,170.75 L 141.25,174.75 L 144.75,186.75 L 141.75,188.75 L 138,189 C 128.44,194.659 117.46,197.23 106,197 L 104,196 L 95,196 L 92,194 L 92.25,192.25 L 106.75,180.75 L 117.75,167.75 L 128.75,153.75 L 133.25,146.25 L 136.75,144.75 L 136,142 z "
     style="fill:#f2f2f2"
     id="path1477" />
  <path
     d="M 136,142 C 136.1398,143.885 134.115,141.8602 136,142 z "
     style="fill:#c4c4c4"
     id="path1478" />
  <path
     d="M 201,154 L 219.75,157.25 L 221.75,159.25 L 224.75,173.75 L 217.25,174.75 C 219.985,173.317 221.082,168.609 218.25,166.25 L 220,165 L 219.75,163.25 L 213,159 L 210,158 L 207,157 L 201.75,157.75 L 200,160 L 214.75,165.25 L 214.75,166.75 C 211.749,167.7387 206.277,174.069 211.75,175.25 L 212.75,176.25 L 211.75,177.75 L 208,178 L 189,177 L 185.25,177.25 L 177.25,188.25 L 176.25,190.25 L 173.25,201.75 L 172,199 L 175,188 L 177.75,179.75 L 184.75,168.75 L 185.25,161.25 L 190.75,173.75 C 193.315,170.604 194.926,166.384 192,163 L 195.75,159.75 L 201,154 z "
     style="fill:#0b0b0b"
     id="path1480" />
  <path
     d="M 159,166 L 159.75,169.75 L 159,166 z "
     style="fill:#c4c4c4"
     id="path1481" />
  <path
     d="M 199,167 L 201.75,168.75 L 199,167 z "
     style="fill:#a9a9a9"
     id="path1482" />
  <path
     d="M 157,175 L 157.75,176.75 L 157,175 z "
     style="fill:#d2d2d2"
     id="path1484" />
  <path
     d="M 272,195 L 272.75,196.75 L 272,195 z "
     style="fill:#d1d1d1"
     id="path1485" />
  <path
     d="M 168,234 L 178.75,237.25 L 185.75,250.75 L 182,252 L 181,249 L 182,247 L 174.75,238.25 L 166,238 L 164.25,236.75 L 168,234 z "
     style="fill:#0f0f0f"
     id="path1486" />
  <path
     d="M 261,254 L 273.25,241.25 L 277.25,239.25 L 284,244 L 283.75,245.75 L 278.25,249.25 L 249.75,287.75 L 226.75,299.75 L 224.25,299.75 L 220.75,291.25 L 219.25,290.75 L 222.25,285.25 L 227,288 L 231.25,284.25 L 235.75,281.75 L 235.25,276.25 L 242,258 L 245.75,253.25 L 247.75,256.25 C 248.939,260.441 253.882,262.066 257,259 C 259.614,260.121 263.968,255.683 261,254 z "
     style="fill:#eaeaea"
     id="path1487" />
  <path
     d="M 159,246 C 165.188,245.5728 176.22,245.3152 175.75,253.75 L 173,256 L 169.75,249.25 L 165.75,250.75 L 159.75,251.75 C 154.235,250.7991 152.266,257.455 156.75,260.25 L 156.75,261.75 L 152,265 C 147.247,265.5524 141.49,263.917 140,259 L 144.75,252.75 L 155,248 L 159,246 z "
     style="fill:#050505"
     id="path1488" />
  <path
     d="M 261,254 L 260,255 L 261,254 z "
     style="fill:#ccc"
     id="path1489" />
  <path
     d="M 122,258 C 126.583,257.5899 131.544,260.136 132.75,264.75 C 130.191,267.444 124.398,266.25 123.75,262.25 L 122,258 z "
     style="fill:#0d0d0d"
     id="path1492" />
  <path
     d="M 186,264 C 189.277,263.6461 195.961,263.9823 194.75,268.75 L 188.75,268.25 L 186,264 z "
     style="fill:#070707"
     id="path1493" />
  <path
     d="M 225,279 L 225.75,280.75 L 225,279 z "
     style="fill:#bebebe"
     id="path1496" />
  <path
     d="M 209,287 C 213.774,287.6957 211.006,291.839 211.25,294.75 L 216.75,296.25 L 218,304 L 202.75,324.75 L 196,326 L 190.25,326.75 L 191.25,322.25 L 194,317 L 193,308 L 193,305 L 206.25,288.25 L 208.75,287.75 L 209,287 z "
     style="fill:#eee"
     id="path1501" />
  <path
     d="M 239,299 L 242,302 L 237.25,308.25 L 232.25,319.25 L 229.25,326.25 L 217.75,350.75 L 215.75,354.75 L 214,355 L 213.25,354.75 L 209,329 L 213.25,320.25 L 217.25,316.25 L 218.75,315.75 L 223.25,308.25 L 225.75,309.75 L 229.75,306.75 L 229.25,305.25 L 239,299 z "
     style="fill:#e9e9e9"
     id="path1503" />
  <path
     d="M 192,313 L 192.75,314.75 L 192,313 z "
     style="fill:#ccc"
     id="path1505" />
  <path
     d="M 173,354 L 173.75,353.75 L 173,347 L 171.25,341.75 L 172,334 L 172.25,327.25 L 179.75,322.25 L 177,331 L 183.75,332.25 L 184,337 L 178,358 L 176.75,366.75 L 175.25,367.75 L 173,354 z "
     style="fill:#dedede"
     id="path1508" />
  <path
     d="M 205,332 C 203.115,332.1397 205.1398,330.115 205,332 z "
     style="fill:#d4d4d4"
     id="path1512" />
  <path
     d="M 193,382 L 194,378 L 192,375 L 192,367 L 192,356 L 194.25,345.25 L 195.75,344.25 L 198.25,365.75 L 199.25,366.75 L 201.75,366.75 L 203,363 L 201.75,356.25 L 204,338 L 203.25,335.25 L 205,332 L 206,333 L 210.25,358.75 L 212,361 L 212,363 L 204,387 L 204,393 L 202,402 L 197.75,420.75 L 194.25,418.75 L 180,387 L 181,379 L 182.75,376.75 L 183,362 L 186.25,345.25 L 190.25,332.25 L 193,334 L 193,337 L 186,362 L 186,367 L 184.25,382.75 L 188,386 L 193,382 z "
     style="fill:#e5e5e5"
     id="path1513" />
  <path
     d="M 164,342 L 165.75,343.75 L 164,342 z "
     style="fill:#cecece"
     id="path1515" />
  <path
     d="M 193,382 L 192.25,378.25 L 193,382 z "
     style="fill:#ccc"
     id="path1518" />
</svg>
